<svg width="350" height="173" viewBox="0 0 350 173" fill="none" xmlns="http://www.w3.org/2000/svg">
<path d="M348.455 170.491H311.766H294.493V98.9949H348.574V113.89H311.766V127.713H345.596V141.059H311.766V155.596H348.455V170.491Z" fill="#FCFFDE"/>
<path d="M243.421 171.408C226.985 171.408 214.747 159.491 214.747 135.417C214.747 111.582 226.625 97.1618 250.14 97.1618C269.816 97.1618 279.414 105.742 282.294 121.593L266.097 125.049C264.057 116.587 259.978 112.059 250.02 112.059C237.063 112.059 232.144 120.639 232.144 135.417C232.144 149.241 237.183 157.465 250.5 157.465C263.937 157.465 267.057 150.672 267.297 144.117H250.02V131.365H283.494V170.216H267.657V154.604H266.217C262.978 164.138 256.259 171.408 243.421 171.408ZM267.297 144.117L267.417 144.355V144.117H267.297Z" fill="#FCFFDE"/>
<path d="M175.944 145.825H165.105V170.491H147.834V98.9949H179.16C197.621 98.9949 206.912 106.74 206.912 122.231C206.912 133.194 201.79 140.344 192.738 143.68L211.081 169.181V170.491H191.07L175.944 145.825ZM177.969 113.413H165.105V132.479H177.969C186.187 132.479 189.879 129.5 189.879 122.827C189.879 116.154 186.544 113.413 177.969 113.413Z" fill="#FCFFDE"/>
<path d="M104.428 157.132C115.526 157.132 118.628 151.271 118.628 141.701V98.995H135.932V143.017C135.932 161.798 124.834 172.325 104.428 172.325C84.0217 172.325 72.6851 162.037 72.6851 143.017V98.995H89.8691V141.462C89.8691 151.032 93.0911 157.132 104.428 157.132Z" fill="#FCFFDE"/>
<path d="M32.5741 172.325C9.60404 172.325 1.70809 161.792 0.272461 149.465L16.6625 145.994C18.4571 154.611 24.3192 158.561 33.2919 158.561C41.3075 158.561 45.2555 156.167 45.2555 151.38C45.2555 146.473 42.0253 143.6 28.3868 141.446C8.40768 138.334 2.4259 130.554 2.4259 118.705C2.4259 105.181 11.8771 97.1619 31.4974 97.1619C50.998 97.1619 59.0136 105.899 60.9277 118.227L43.8198 121.578C42.2646 114.277 39.2737 110.567 30.6599 110.567C23.1229 110.567 19.4142 112.96 19.4142 117.748C19.4142 122.057 21.3283 124.809 35.565 127.442C57.9368 131.272 62.6026 139.65 62.6026 150.183C62.6026 164.066 53.63 172.325 32.5741 172.325Z" fill="#FCFFDE"/>
<path d="M310.423 80.6628H277.994V1.83344H310.678C337.617 1.83344 349.49 15.6286 349.49 40.3284C349.49 65.291 334.936 80.6628 310.423 80.6628ZM296.379 17.4679V65.1596H309.018C324.85 65.1596 331.106 56.7512 331.106 40.3284C331.106 23.6429 324.722 17.4679 308.38 17.4679H296.379Z" fill="#FCFFDE"/>
<path d="M227.58 82.4958C202.474 82.4958 188.166 66.4695 188.166 40.9852C188.166 15.7635 203.385 0 227.58 0C252.296 0 266.995 15.7635 266.995 40.9852C266.995 66.4695 252.946 82.4958 227.58 82.4958ZM227.58 66.2068C242.279 66.2068 248.393 56.6173 248.393 40.9852C248.393 26.2725 242.279 16.5517 227.58 16.5517C213.011 16.5517 206.897 26.2725 206.897 40.9852C206.897 56.3546 213.011 66.2068 227.58 66.2068Z" fill="#FCFFDE"/>
<path d="M143.723 82.4959C118.91 82.4959 104.767 66.4696 104.767 40.9852C104.767 15.7636 119.81 7.62939e-05 143.723 7.62939e-05C168.152 7.62939e-05 182.68 15.7636 182.68 40.9852C182.68 66.4696 168.794 82.4959 143.723 82.4959ZM143.723 66.2069C158.252 66.2069 164.294 56.6174 164.294 40.9852C164.294 26.2726 158.252 16.5518 143.723 16.5518C129.324 16.5518 123.281 26.2726 123.281 40.9852C123.281 56.3547 129.324 66.2069 143.723 66.2069Z" fill="#FCFFDE"/>
<path d="M48.0023 56.6199H50.0886C52.3054 47.2917 55.0438 37.0439 56.7389 31.6573L66.5188 1.83351H94.6847V80.6628H75.9074V47.6859C75.9074 38.095 76.2986 26.6647 76.6898 17.2052H74.7338C72.1259 27.5844 68.7355 39.5402 64.954 51.1018L55.8261 76.4586H38.4832L29.7466 50.5763C25.7042 38.095 22.8355 27.1903 20.3579 17.2052H18.402C18.5324 26.6647 18.5324 37.8322 18.5324 47.4231V80.6628H1.18945V1.83351H31.7025L41.4824 32.3142C43.0472 37.4381 45.7855 47.2917 48.0023 56.6199Z" fill="#FCFFDE"/>
</svg>
